<?xml version="1.0" encoding="iso-8859-1"?>
<!-- Generator: Adobe Illustrator 19.0.0, SVG Export Plug-In . SVG Version: 6.00 Build 0)  -->
<svg version="1.1" id="Layer_1" xmlns="http://www.w3.org/2000/svg" xmlns:xlink="http://www.w3.org/1999/xlink" x="0px" y="0px"
	 viewBox="0 0 512 512" style="enable-background:new 0 0 512 512;" xml:space="preserve">
<g>
	<g>
		<path d="M323.173,158.988c-37.861,0-68.664,30.803-68.664,68.664c0,37.861,30.803,68.664,68.664,68.664
			s68.664-30.803,68.664-68.664C391.837,189.792,361.034,158.988,323.173,158.988z M323.173,279.151
			c-28.398,0-51.498-23.1-51.498-51.498c0-28.398,23.1-51.498,51.498-51.498c28.398,0,51.498,23.101,51.498,51.498
			C374.671,256.05,351.571,279.151,323.173,279.151z"/>
	</g>
</g>
<g>
	<g>
		<path d="M134.346,158.988c-37.861,0-68.664,30.803-68.664,68.664c0,37.861,30.803,68.664,68.664,68.664
			c37.861,0,68.664-30.803,68.664-68.664C203.011,189.792,172.207,158.988,134.346,158.988z M134.346,279.151
			c-28.398,0-51.498-23.1-51.498-51.498c0-28.398,23.1-51.498,51.498-51.498c28.398,0,51.498,23.101,51.498,51.498
			C185.845,256.05,162.744,279.151,134.346,279.151z"/>
	</g>
</g>
<g>
	<g>
		<path d="M134.346,201.903c-14.199,0-25.749,11.55-25.749,25.749s11.55,25.749,25.749,25.749c14.199,0,25.749-11.55,25.749-25.749
			S148.545,201.903,134.346,201.903z M134.346,236.236c-4.732,0-8.583-3.847-8.583-8.583c0-4.736,3.851-8.583,8.583-8.583
			c4.732,0,8.583,3.847,8.583,8.583C142.929,232.388,139.078,236.236,134.346,236.236z"/>
	</g>
</g>
<g>
	<g>
		<path d="M323.173,201.903c-14.199,0-25.749,11.55-25.749,25.749s11.55,25.749,25.749,25.749s25.749-11.55,25.749-25.749
			S337.372,201.903,323.173,201.903z M323.173,236.236c-4.732,0-8.583-3.847-8.583-8.583c0-4.736,3.851-8.583,8.583-8.583
			c4.732,0,8.583,3.847,8.583,8.583C331.756,232.388,327.905,236.236,323.173,236.236z"/>
	</g>
</g>
<g>
	<g>
		<path d="M477.693,81.699h-43.1c-2.215-34.332-30.133-60.081-64.155-60.081H87.081c-35.464,0-64.314,28.918-64.314,64.415v55.79
			c0,3.332,1.917,6.188,4.691,7.609c-48.042,89.661-32.127,200.369,40.576,273.067c43.77,43.77,101.961,67.885,163.866,67.885
			c61.9,0,120.095-24.135,163.866-67.906c72.486-72.486,88.506-181.991,41.078-272.113h40.85c18.918,0,34.307-15.398,34.307-34.332
			C512,97.097,496.611,81.699,477.693,81.699z M39.933,86.032c0-26.026,21.152-47.249,47.148-47.249h283.357
			c25.997,0,47.148,21.223,47.148,47.249v4.292v42.873H39.933V86.032z M383.627,410.34c-40.53,40.526-94.413,62.866-151.729,62.866
			S120.697,450.86,80.17,410.333c-69.257-69.257-82.856-176.286-33.57-259.97h370.59C466.493,234.048,452.929,341.03,383.627,410.34
			z M477.693,133.197h-42.94V98.865h42.94c9.451,0,17.141,7.703,17.141,17.166C494.834,125.494,487.143,133.197,477.693,133.197z"/>
	</g>
</g>
<g>
	<g>
		<path d="M306.007,313.483c-4.74,0-8.583,3.839-8.583,8.583c0,37.861-30.803,68.664-68.664,68.664s-68.664-30.803-68.664-68.664
			c0-4.744-3.843-8.583-8.583-8.583c-4.74,0-8.583,3.839-8.583,8.583c0,47.324,38.502,85.83,85.83,85.83
			c47.328,0,85.83-38.506,85.83-85.83C314.59,317.322,310.747,313.483,306.007,313.483z"/>
	</g>
</g>
<g>
</g>
<g>
</g>
<g>
</g>
<g>
</g>
<g>
</g>
<g>
</g>
<g>
</g>
<g>
</g>
<g>
</g>
<g>
</g>
<g>
</g>
<g>
</g>
<g>
</g>
<g>
</g>
<g>
</g>
</svg>
