<?xml version="1.0" encoding="iso-8859-1"?>
<!-- Generator: Adobe Illustrator 19.0.0, SVG Export Plug-In . SVG Version: 6.00 Build 0)  -->
<svg version="1.1" id="Layer_1" xmlns="http://www.w3.org/2000/svg" xmlns:xlink="http://www.w3.org/1999/xlink" x="0px" y="0px"
	 viewBox="0 0 512 512" style="enable-background:new 0 0 512 512;" xml:space="preserve">
<g>
	<g>
		<path d="M256,0C114.843,0,0,114.843,0,256c0,141.157,114.843,256,256,256s256-114.843,256-256C512,114.843,397.157,0,256,0z
			 M256,493.037C125.296,493.037,18.963,386.704,18.963,256C18.963,125.296,125.296,18.963,256,18.963S493.037,125.296,493.037,256
			C493.037,386.704,386.704,493.037,256,493.037z"/>
	</g>
</g>
<g>
	<g>
		<path d="M421.222,304.31c-4.732-2.227-10.384-0.208-12.616,4.542c-22.5,47.806-53.13,78.463-91.037,91.111
			c-57.56,19.218-113.445-9.819-114.009-10.116c-4.644-2.444-10.361-0.694-12.815,3.931c-2.454,4.616-0.713,10.347,3.903,12.81
			c1.907,1.019,36.287,18.991,80.805,18.991c15.093,0,31.356-2.065,47.908-7.56c43.12-14.31,77.569-48.324,102.403-101.092
			C427.995,312.19,425.958,306.542,421.222,304.31z"/>
	</g>
</g>
<g>
	<g>
		<rect x="170.667" y="208.548" width="18.963" height="37.926"/>
	</g>
</g>
<g>
	<g>
		<rect x="312.889" y="208.548" width="18.963" height="37.926"/>
	</g>
</g>
<g>
	<g>
		<rect x="170.667" y="265.434" width="18.963" height="28.444"/>
	</g>
</g>
<g>
	<g>
		<rect x="312.889" y="303.36" width="18.963" height="28.444"/>
	</g>
</g>
<g>
	<g>
		<rect x="312.889" y="265.434" width="18.963" height="28.444"/>
	</g>
</g>
<g>
	<g>
		<path d="M208.106,167.667c-1.657-4.963-7.018-7.671-11.995-5.995l-56.889,18.963c-4.968,1.657-7.653,7.028-5.995,11.995
			c1.324,3.972,5.023,6.486,8.995,6.486c0.991,0,2.005-0.157,3-0.491l56.889-18.963
			C207.079,178.005,209.764,172.634,208.106,167.667z"/>
	</g>
</g>
<g>
	<g>
		<path d="M363.296,180.634l-56.889-18.963c-4.995-1.676-10.338,1.033-11.995,5.995c-1.657,4.968,1.028,10.338,5.995,11.995
			l56.889,18.963c0.995,0.333,2.009,0.491,3,0.491c3.972,0,7.671-2.514,8.995-6.486
			C370.949,187.662,368.264,182.292,363.296,180.634z"/>
	</g>
</g>
<g>
</g>
<g>
</g>
<g>
</g>
<g>
</g>
<g>
</g>
<g>
</g>
<g>
</g>
<g>
</g>
<g>
</g>
<g>
</g>
<g>
</g>
<g>
</g>
<g>
</g>
<g>
</g>
<g>
</g>
</svg>
