<?xml version="1.0" encoding="iso-8859-1"?>
<!-- Generator: Adobe Illustrator 19.0.0, SVG Export Plug-In . SVG Version: 6.00 Build 0)  -->
<svg version="1.1" id="Layer_1" xmlns="http://www.w3.org/2000/svg" xmlns:xlink="http://www.w3.org/1999/xlink" x="0px" y="0px"
	 viewBox="0 0 512 512" style="enable-background:new 0 0 512 512;" xml:space="preserve">
<g>
	<g>
		<g>
			<path d="M256,0C114.618,0,0,114.618,0,256s114.618,256,256,256s256-114.618,256-256S397.382,0,256,0z M256,469.333
				c-117.818,0-213.333-95.515-213.333-213.333S138.182,42.667,256,42.667S469.333,138.182,469.333,256S373.818,469.333,256,469.333
				z"/>
			<path d="M384,256c-11.782,0-21.333,9.551-21.333,21.333C362.667,333.434,312.101,384,256,384s-106.667-50.566-106.667-106.667
				c0-11.782-9.551-21.333-21.333-21.333c-11.782,0-21.333,9.551-21.333,21.333c0,79.665,69.669,149.333,149.333,149.333
				s149.333-69.669,149.333-149.333C405.333,265.551,395.782,256,384,256z"/>
			<path d="M127.872,197.152l42.795,37.525l43.541-37.525c8.213-7.189,14.315-16.619,16.917-27.243
				c1.899-7.787,1.024-12.117,1.024-12.117c-1.6-17.451-14.357-32.085-32.064-32.085c-13.163,0-24.469,7.915-29.419,19.243
				c-4.949-11.328-15.531-19.243-28.672-19.243c-17.728,0-30.485,14.635-32.085,32.085c0,0-0.875,4.331,1.045,12.117
				C113.536,180.533,119.637,189.963,127.872,197.152z"/>
			<path d="M298.539,197.152l42.795,37.525l43.541-37.525c8.213-7.189,14.315-16.619,16.917-27.243
				c1.899-7.787,1.024-12.117,1.024-12.117c-1.6-17.451-14.357-32.085-32.064-32.085c-13.163,0-24.469,7.915-29.419,19.243
				c-4.949-11.328-15.531-19.243-28.672-19.243c-17.728,0-30.485,14.635-32.085,32.085c0,0-0.875,4.331,1.045,12.117
				C284.203,180.533,290.304,189.963,298.539,197.152z"/>
		</g>
	</g>
</g>
<g>
</g>
<g>
</g>
<g>
</g>
<g>
</g>
<g>
</g>
<g>
</g>
<g>
</g>
<g>
</g>
<g>
</g>
<g>
</g>
<g>
</g>
<g>
</g>
<g>
</g>
<g>
</g>
<g>
</g>
</svg>
