<?xml version="1.0" encoding="iso-8859-1"?>
<!-- Generator: Adobe Illustrator 19.0.0, SVG Export Plug-In . SVG Version: 6.00 Build 0)  -->
<svg version="1.1" id="Layer_1" xmlns="http://www.w3.org/2000/svg" xmlns:xlink="http://www.w3.org/1999/xlink" x="0px" y="0px"
	 viewBox="0 0 512 512" style="enable-background:new 0 0 512 512;" xml:space="preserve">
<g>
	<g>
		<path d="M437.019,74.981c-99.815-99.815-262.222-99.815-362.037,0C26.63,123.333,0,187.62,0,256
			c0,68.38,26.63,132.667,74.981,181.016C124.889,486.923,190.444,511.88,256,511.88c65.555,0,131.111-24.956,181.019-74.864
			C485.37,388.667,512,324.38,512,256C512,187.62,485.37,123.333,437.019,74.981z M423.611,423.611
			c-92.426,92.407-242.796,92.407-335.222,0C43.62,378.843,18.963,319.315,18.963,256c0-63.315,24.657-122.845,69.426-167.613
			C134.602,42.183,195.301,19.072,256,19.072c60.699,0,121.398,23.111,167.611,69.315C468.38,133.155,493.037,192.685,493.037,256
			C493.037,319.315,468.38,378.843,423.611,423.611z"/>
	</g>
</g>
<g>
	<g>
		<path d="M376.681,363.266l-87.141-87.137c-0.007-0.007-0.01-0.014-0.016-0.021c-0.006-0.005-0.014-0.009-0.02-0.014
			l-46.908-46.908l-0.004-0.005c0,0-0.002-0.002-0.005-0.002l-46.919-46.917c-0.005-0.005-0.007-0.009-0.012-0.014
			c-0.005-0.005-0.01-0.01-0.015-0.014l-46.916-46.912c-3.704-3.704-9.704-3.704-13.407,0c-66.542,66.537-66.542,174.815,0,241.352
			c28.357,28.359,64.933,45.493,104.355,49.211c0.95,0.308,1.93,0.502,2.918,0.502c0.571,0,1.14-0.062,1.703-0.164
			c3.881,0.262,7.779,0.442,11.705,0.442c45.588,0,88.444-17.75,120.681-49.991C380.384,372.972,380.384,366.97,376.681,363.266z
			 M104.296,256c0-37.345,13.403-72.632,37.931-100.361l33.317,33.315l-71.148,71.148C104.36,258.736,104.296,257.373,104.296,256z
			 M125.286,333.079c-8.948-15.113-15.148-31.65-18.377-48.995c0.563-0.361,1.099-0.778,1.591-1.271l80.452-80.452l33.528,33.528
			L125.286,333.079z M148.727,363.266c-4.521-4.519-8.683-9.299-12.551-14.262l99.711-99.709l33.523,33.521l-98.674,98.676
			C162.932,376.166,155.554,370.095,148.727,363.266z M239.321,406.771c-18.181-1.977-35.635-7.185-51.719-15.326l95.215-95.22
			l33.525,33.525L239.321,406.771z M265.532,407.373l64.218-64.215l26.611,26.609C331.002,392.204,299.324,405.292,265.532,407.373z
			"/>
	</g>
</g>
<g>
	<g>
		<path d="M296.227,95.09c-3.704-3.704-9.704-3.704-13.407,0l-40.227,40.234c-3.704,3.704-3.704,9.701,0,13.405
			c1.852,1.854,4.278,2.78,6.704,2.78c2.426,0,4.852-0.926,6.704-2.78l40.227-40.229C299.931,104.796,299.931,98.794,296.227,95.09z
			"/>
	</g>
</g>
<g>
	<g>
		<path d="M403.495,202.359c-3.704-3.704-9.704-3.704-13.407,0l-40.227,40.234c-3.704,3.704-3.704,9.701,0,13.407
			c1.852,1.852,4.278,2.775,6.704,2.775c2.426,0,4.852-0.923,6.704-2.775l40.227-40.231
			C407.199,212.065,407.199,206.062,403.495,202.359z"/>
	</g>
</g>
<g>
</g>
<g>
</g>
<g>
</g>
<g>
</g>
<g>
</g>
<g>
</g>
<g>
</g>
<g>
</g>
<g>
</g>
<g>
</g>
<g>
</g>
<g>
</g>
<g>
</g>
<g>
</g>
<g>
</g>
</svg>
