<?xml version="1.0" encoding="iso-8859-1"?>
<!-- Generator: Adobe Illustrator 19.0.0, SVG Export Plug-In . SVG Version: 6.00 Build 0)  -->
<svg version="1.1" id="Layer_1" xmlns="http://www.w3.org/2000/svg" xmlns:xlink="http://www.w3.org/1999/xlink" x="0px" y="0px"
	 viewBox="0 0 512 512" style="enable-background:new 0 0 512 512;" xml:space="preserve">
<g>
	<g>
		<path d="M256,0C114.843,0,0.001,114.844,0.001,256.001C0.001,397.156,114.843,512,256,512s255.999-114.844,255.999-255.999
			C511.999,114.844,397.157,0,256,0z M256,493.037c-130.703,0-237.036-106.333-237.036-237.036
			C18.964,125.296,125.297,18.963,256,18.963s237.036,106.333,237.036,237.038C493.036,386.704,386.703,493.037,256,493.037z"/>
	</g>
</g>
<g>
	<g>
		<path d="M180.149,208.594c-26.139,0-47.407,21.269-47.407,47.407c0,5.241,4.241,9.481,9.481,9.481
			c5.241,0,9.481-4.241,9.481-9.481c0-15.685,12.759-28.444,28.444-28.444c15.685,0,28.444,12.759,28.444,28.444
			c0,5.241,4.241,9.481,9.481,9.481c5.241,0,9.481-4.241,9.481-9.481C227.556,229.862,206.287,208.594,180.149,208.594z"/>
	</g>
</g>
<g>
	<g>
		<path d="M331.852,208.594c-26.139,0-47.407,21.269-47.407,47.407c0,5.241,4.241,9.481,9.481,9.481
			c5.241,0,9.481-4.241,9.481-9.481c0-15.685,12.759-28.444,28.444-28.444c15.685,0,28.444,12.759,28.444,28.444
			c0,5.241,4.241,9.481,9.481,9.481c5.241,0,9.481-4.241,9.481-9.481C379.259,229.862,357.99,208.594,331.852,208.594z"/>
	</g>
</g>
<g>
	<g>
		<path d="M256,303.408c-47.055,0-85.333,38.278-85.333,85.333c0,47.055,38.278,85.333,85.333,85.333
			c47.055,0,85.333-38.278,85.333-85.333C341.333,341.686,303.055,303.408,256,303.408z M256,455.111
			c-36.592,0-66.37-29.78-66.37-66.37c0-36.595,29.778-66.37,66.37-66.37c36.592,0,66.37,29.776,66.37,66.37
			C322.37,425.332,292.592,455.111,256,455.111z"/>
	</g>
</g>
<g>
	<g>
		<path d="M256,350.815c-20.917,0-37.926,17.007-37.926,37.926c0,20.917,17.009,37.926,37.926,37.926s37.926-17.009,37.926-37.926
			C293.926,367.822,276.917,350.815,256,350.815z M256,407.704c-10.454,0-18.963-8.509-18.963-18.963
			c0-10.454,8.509-18.963,18.963-18.963c10.454,0,18.963,8.509,18.963,18.963C274.963,399.195,266.454,407.704,256,407.704z"/>
	</g>
</g>
<g>
</g>
<g>
</g>
<g>
</g>
<g>
</g>
<g>
</g>
<g>
</g>
<g>
</g>
<g>
</g>
<g>
</g>
<g>
</g>
<g>
</g>
<g>
</g>
<g>
</g>
<g>
</g>
<g>
</g>
</svg>
