<?xml version="1.0" encoding="iso-8859-1"?>
<!-- Generator: Adobe Illustrator 19.0.0, SVG Export Plug-In . SVG Version: 6.00 Build 0)  -->
<svg version="1.1" id="Layer_1" xmlns="http://www.w3.org/2000/svg" xmlns:xlink="http://www.w3.org/1999/xlink" x="0px" y="0px"
	 viewBox="0 0 512 512" style="enable-background:new 0 0 512 512;" xml:space="preserve">
<g>
	<g>
		<path d="M256,0C114.843,0,0,114.843,0,256c0,141.157,114.843,256,256,256s256-114.843,256-256C512,114.843,397.157,0,256,0z
			 M256,493.037C125.296,493.037,18.963,386.704,18.963,256C18.963,125.296,125.296,18.963,256,18.963S493.037,125.296,493.037,256
			C493.037,386.704,386.704,493.037,256,493.037z"/>
	</g>
</g>
<g>
	<g>
		<path d="M256,94.815c-41.824,0-75.852,34.028-75.852,75.852c0,41.824,34.028,75.852,75.852,75.852s75.852-34.028,75.852-75.852
			C331.852,128.843,297.824,94.815,256,94.815z M256,227.556c-31.37,0-56.889-25.518-56.889-56.889
			c0-31.37,25.518-56.889,56.889-56.889s56.889,25.519,56.889,56.889C312.889,202.037,287.37,227.556,256,227.556z"/>
	</g>
</g>
<g>
	<g>
		<rect x="246.518" y="142.177" width="18.963" height="66.37"/>
	</g>
</g>
<g>
	<g>
		<rect x="132.741" y="350.767" width="237.037" height="18.963"/>
	</g>
</g>
<g>
</g>
<g>
</g>
<g>
</g>
<g>
</g>
<g>
</g>
<g>
</g>
<g>
</g>
<g>
</g>
<g>
</g>
<g>
</g>
<g>
</g>
<g>
</g>
<g>
</g>
<g>
</g>
<g>
</g>
</svg>
