<?xml version="1.0" encoding="iso-8859-1"?>
<!-- Generator: Adobe Illustrator 19.0.0, SVG Export Plug-In . SVG Version: 6.00 Build 0)  -->
<svg version="1.1" id="Layer_1" xmlns="http://www.w3.org/2000/svg" xmlns:xlink="http://www.w3.org/1999/xlink" x="0px" y="0px"
	 viewBox="0 0 512 512" style="enable-background:new 0 0 512 512;" xml:space="preserve">
<g>
	<g>
		<path d="M256,0C114.843,0,0,114.843,0,256c0,141.155,114.843,256,256,256s256-114.845,256-256C512,114.843,397.157,0,256,0z
			 M256,493.037C125.296,493.037,18.963,386.704,18.963,256C18.963,125.294,125.296,18.963,256,18.963S493.037,125.294,493.037,256
			C493.037,386.704,386.704,493.037,256,493.037z"/>
	</g>
</g>
<g>
	<g>
		<polygon points="212.259,144.85 201.741,129.074 156.444,159.271 111.148,129.074 100.63,144.85 139.352,170.667 100.63,196.482 
			111.148,212.257 156.444,182.06 201.741,212.257 212.259,196.482 173.537,170.667 		"/>
	</g>
</g>
<g>
	<g>
		<polygon points="411.37,144.85 400.852,129.074 355.556,159.271 310.259,129.074 299.741,144.85 338.463,170.667 299.741,196.482 
			310.259,212.257 355.556,182.06 400.852,212.257 411.37,196.482 372.648,170.667 		"/>
	</g>
</g>
<g>
	<g>
		<path d="M256,303.407c-41.824,0-75.852,34.025-75.852,75.852c0,41.824,34.028,75.852,75.852,75.852s75.852-34.028,75.852-75.852
			C331.852,337.433,297.824,303.407,256,303.407z M256,436.148c-31.37,0-56.889-25.521-56.889-56.889
			c0-31.37,25.518-56.889,56.889-56.889s56.889,25.519,56.889,56.889C312.889,410.627,287.37,436.148,256,436.148z"/>
	</g>
</g>
<g>
</g>
<g>
</g>
<g>
</g>
<g>
</g>
<g>
</g>
<g>
</g>
<g>
</g>
<g>
</g>
<g>
</g>
<g>
</g>
<g>
</g>
<g>
</g>
<g>
</g>
<g>
</g>
<g>
</g>
</svg>
