<?xml version="1.0" encoding="iso-8859-1"?>
<!-- Generator: Adobe Illustrator 19.0.0, SVG Export Plug-In . SVG Version: 6.00 Build 0)  -->
<svg version="1.1" id="Layer_1" xmlns="http://www.w3.org/2000/svg" xmlns:xlink="http://www.w3.org/1999/xlink" x="0px" y="0px"
	 viewBox="0 0 512 512" style="enable-background:new 0 0 512 512;" xml:space="preserve">
<g>
	<g>
		<path d="M492.377,157.737c-0.029-0.075-0.06-0.149-0.092-0.224C453.623,65.101,362.274,0,256,0C114.843,0,0,114.843,0,256
			c0,141.157,114.843,256,256,256s256-114.843,256-256C512,221.203,505.009,188.01,492.377,157.737z M256,493.037
			C125.296,493.037,18.963,386.704,18.963,256c0-32.954,6.766-64.354,18.971-92.896l23.177,15.428
			c1.556,1.037,3.389,1.571,5.259,1.571h50.183c-1.796,7.111-2.775,12.397-2.775,18.985c0,36.598,29.773,66.382,66.37,66.382
			c36.597,0,66.37-29.767,66.37-66.365c0-36.597-29.773-66.39-66.37-66.39c-22.502,0-42.412,11.832-54.42,28.425H69.241
			l-23.057-15.348C85.918,70.435,165.051,18.952,256,18.952c95.66,0,178.258,56.946,215.677,138.729l-19.436,12.941h-60.435
			c-10.671-21.333-33.531-37.904-59.954-37.904c-36.597,0-66.37,29.785-66.37,66.382c0,36.597,29.773,66.376,66.37,66.376
			c36.597,0,66.37-29.793,66.37-66.39c0-3.22-0.243-7.131-0.687-9.501h57.576c1.87,0,3.704-0.534,5.259-1.571l18.626-12.405
			c9.078,25.111,14.04,52.181,14.04,80.385C493.037,386.698,386.704,493.037,256,493.037z M132.741,199.111
			c0-7.227,1.674-14.054,4.579-20.19c2.871-1.597,4.836-4.609,4.889-8.114c8.653-11.568,22.417-19.104,37.94-19.104
			c26.139,0,47.407,21.269,47.407,47.407c0,26.139-21.269,47.407-47.407,47.407C154.009,246.518,132.741,225.25,132.741,199.111z
			 M379.259,199.111c0,26.139-21.269,47.407-47.407,47.407s-47.407-21.268-47.407-47.407c0-26.139,21.269-47.407,47.407-47.407
			S379.259,172.972,379.259,199.111z"/>
	</g>
</g>
<g>
	<g>
		<path d="M417.185,246.518c-5.236,0-9.481,4.246-9.481,9.482c0,83.648-68.056,151.704-151.704,151.704S104.296,339.648,104.296,256
			c0-5.236-4.245-9.482-9.482-9.482s-9.482,4.246-9.482,9.482c0,94.107,76.56,170.667,170.667,170.667S426.667,350.107,426.667,256
			C426.667,250.764,422.421,246.518,417.185,246.518z"/>
	</g>
</g>
<g>
</g>
<g>
</g>
<g>
</g>
<g>
</g>
<g>
</g>
<g>
</g>
<g>
</g>
<g>
</g>
<g>
</g>
<g>
</g>
<g>
</g>
<g>
</g>
<g>
</g>
<g>
</g>
<g>
</g>
</svg>
