<?xml version="1.0" encoding="utf-8"?>
<!-- Generator: Adobe Illustrator 19.1.0, SVG Export Plug-In . SVG Version: 6.00 Build 0)  -->
<svg version="1.1" id="Layer_1" xmlns="http://www.w3.org/2000/svg" xmlns:xlink="http://www.w3.org/1999/xlink" x="0px" y="0px"
	 viewBox="0 0 64 64" enable-background="new 0 0 64 64" xml:space="preserve">
<g id="Smile-Eyelids_1_">
	<path d="M46.4257889,41.0966988c-0.4990005-0.2343979-1.0937881-0.0205002-1.3311005,0.4775009
		C44.9511871,41.8769989,41.4667892,49,32,49c-9.4492111,0-12.9385109-7.0966988-13.0947113-7.4238014
		c-0.2334003-0.5-0.825201-0.7138977-1.3290997-0.482399c-0.5,0.2342987-0.7158012,0.8291016-0.4824009,1.3300018
		C17.2577877,42.7733994,21.2265873,51,32,51c10.7733879,0,14.7421875-8.2266006,14.9062881-8.5761986
		C47.1395874,41.9238014,46.9237862,41.3311005,46.4257889,41.0966988z"/>
	<path d="M32,0C14.3268881,0,0,14.3268003,0,32c0,17.6730995,14.3268881,32,32,32c17.6731873,0,32-14.3269005,32-32
		C64,14.3268003,49.6731873,0,32,0z M32,62C15.4578886,62,2,48.542099,2,32S15.4578886,2,32,2c16.5420876,0,30,13.4579,30,30
		S48.5420876,62,32,62z"/>
	<path d="M29.5,25.8250999C29.5,21.5035,25.9182873,18,21.5,18c-4.4183121,0-8,3.5035-8,7.8250999
		c0,1.5368004,0.4594879,2.9657001,1.241888,4.1749001h13.5163002C29.0404873,28.7908001,29.5,27.3619003,29.5,25.8250999z
		 M27.0570889,27.9937H15.9428883c-0.2874002-0.6882-0.4365997-1.4234009-0.4365997-2.1686001
		c0-3.2084999,2.6887989-5.8188,5.9937115-5.8188c3.3050003,0,5.9936886,2.6103001,5.9936886,5.8188
		C27.4936886,26.5702991,27.3444881,27.3055,27.0570889,27.9937z"/>
	<path d="M43.5,18c-4.4183121,0-8,3.5035-8,7.8250999c0,1.5368004,0.4594879,2.9657001,1.2418861,4.1749001h13.5163002
		C51.0404892,28.7908001,51.5,27.3619003,51.5,25.8250999C51.5,21.5035,47.9182892,18,43.5,18z M49.0570869,27.9937H37.9428864
		c-0.2873993-0.6882-0.4365997-1.4234009-0.4365997-2.1686001c0-3.2084999,2.6888008-5.8188,5.9937134-5.8188
		c3.3050003,0,5.9936867,2.6103001,5.9936867,5.8188C49.4936867,26.5702991,49.3444862,27.3055,49.0570869,27.9937z"/>
</g>
<g>
</g>
<g>
</g>
<g>
</g>
<g>
</g>
<g>
</g>
<g>
</g>
<g>
</g>
<g>
</g>
<g>
</g>
<g>
</g>
<g>
</g>
<g>
</g>
<g>
</g>
<g>
</g>
<g>
</g>
</svg>
