<?xml version="1.0" encoding="iso-8859-1"?>
<!-- Generator: Adobe Illustrator 19.0.0, SVG Export Plug-In . SVG Version: 6.00 Build 0)  -->
<svg version="1.1" id="Layer_1" xmlns="http://www.w3.org/2000/svg" xmlns:xlink="http://www.w3.org/1999/xlink" x="0px" y="0px"
	 viewBox="0 0 512 512" style="enable-background:new 0 0 512 512;" xml:space="preserve">
<g>
	<g>
		<path d="M256,0C114.843,0,0,114.843,0,256c0,141.157,114.843,256,256,256s256-114.843,256-256C512,114.843,397.157,0,256,0z
			 M256,493.037C125.296,493.037,18.963,386.704,18.963,256C18.963,125.296,125.296,18.963,256,18.963S493.037,125.296,493.037,256
			C493.037,386.704,386.704,493.037,256,493.037z"/>
	</g>
</g>
<g>
	<g>
		<path d="M180.148,123.259c-26.139,0-47.407,21.269-47.407,47.407c0,5.236,4.245,9.481,9.482,9.481s9.482-4.245,9.482-9.481
			c0-15.685,12.759-28.444,28.444-28.444c15.685,0,28.444,12.759,28.444,28.444c0,5.236,4.245,9.481,9.482,9.481
			s9.481-4.245,9.481-9.481C227.556,144.528,206.287,123.259,180.148,123.259z"/>
	</g>
</g>
<g>
	<g>
		<path d="M322.37,123.259c-26.139,0-47.407,21.269-47.407,47.407c0,5.236,4.245,9.481,9.482,9.481s9.481-4.245,9.481-9.481
			c0-15.685,12.759-28.444,28.444-28.444c15.685,0,28.444,12.759,28.444,28.444c0,5.236,4.245,9.481,9.482,9.481
			s9.481-4.245,9.481-9.481C369.778,144.528,348.509,123.259,322.37,123.259z"/>
	</g>
</g>
<g>
	<g>
		<path d="M435.977,224.565c-1.287-3.875-4.912-6.491-8.995-6.491c-4.083,0-7.708,2.616-8.995,6.491
			C394.759,294.408,329.662,341.333,256,341.333S117.241,294.408,94.014,224.565c-1.287-3.875-4.912-6.491-8.995-6.491
			c-4.083,0-7.708,2.616-8.995,6.491c-6.408,19.264-9.653,39.412-9.653,59.88c0,104.56,85.07,189.63,189.63,189.63
			s189.63-85.069,189.63-189.63C445.63,263.977,442.384,243.829,435.977,224.565z M256,455.111
			c-94.107,0-170.667-76.56-170.667-170.667c0-9.018,0.699-17.967,2.088-26.782C119.546,320.051,184.102,360.296,256,360.296
			s136.454-40.245,168.579-102.634c1.389,8.815,2.088,17.764,2.088,26.782C426.667,378.551,350.107,455.111,256,455.111z"/>
	</g>
</g>
<g>
</g>
<g>
</g>
<g>
</g>
<g>
</g>
<g>
</g>
<g>
</g>
<g>
</g>
<g>
</g>
<g>
</g>
<g>
</g>
<g>
</g>
<g>
</g>
<g>
</g>
<g>
</g>
<g>
</g>
</svg>
