<?xml version="1.0" encoding="iso-8859-1"?>
<!-- Generator: Adobe Illustrator 19.0.0, SVG Export Plug-In . SVG Version: 6.00 Build 0)  -->
<svg version="1.1" id="Layer_1" xmlns="http://www.w3.org/2000/svg" xmlns:xlink="http://www.w3.org/1999/xlink" x="0px" y="0px"
	 viewBox="0 0 512 512" style="enable-background:new 0 0 512 512;" xml:space="preserve">
<g>
	<g>
		<path d="M256,0C114.843,0,0.001,114.844,0.001,256.001C0.001,397.156,114.843,512,256,512s255.999-114.844,255.999-255.999
			C511.999,114.844,397.157,0,256,0z M256,493.037c-130.703,0-237.036-106.333-237.036-237.036
			C18.964,125.296,125.297,18.963,256,18.963s237.036,106.333,237.036,237.038C493.036,386.704,386.703,493.037,256,493.037z"/>
	</g>
</g>
<g>
	<g>
		<path d="M216.509,212.83c-1.759-2.657-4.731-4.282-7.917-4.282h-52.685l23.639-63.014c1.833-4.907-0.648-10.359-5.546-12.201
			c-4.898-1.815-10.38,0.643-12.213,5.551l-28.444,75.854c-1.093,2.917-0.685,6.155,1.083,8.711
			c1.778,2.556,4.685,4.063,7.796,4.063h51.991l-22.778,53.18c-2.065,4.806,0.167,10.391,4.982,12.456
			c1.213,0.528,2.482,0.773,3.731,0.773c3.676,0,7.176-2.146,8.713-5.748l28.444-66.379
			C218.565,218.867,218.259,215.497,216.509,212.83z"/>
	</g>
</g>
<g>
	<g>
		<path d="M368.212,212.828c-1.759-2.657-4.731-4.28-7.917-4.28h-52.685l23.639-63.014c1.833-4.907-0.648-10.359-5.546-12.201
			c-4.908-1.815-10.37,0.643-12.213,5.551l-28.444,75.854c-1.093,2.917-0.685,6.155,1.083,8.711
			c1.778,2.556,4.685,4.063,7.796,4.063h51.991l-22.778,53.18c-2.065,4.806,0.167,10.391,4.982,12.456
			c1.213,0.528,2.482,0.773,3.731,0.773c3.676,0,7.176-2.146,8.713-5.748l28.444-66.368
			C370.268,218.879,369.962,215.494,368.212,212.828z"/>
	</g>
</g>
<g>
	<g>
		<path d="M256,341.334c-26.139,0-47.407,21.269-47.407,47.407c0,26.139,21.269,47.407,47.407,47.407s47.407-21.268,47.407-47.407
			C303.407,362.603,282.139,341.334,256,341.334z M256,417.186c-15.685,0-28.444-12.762-28.444-28.444
			c0-15.685,12.759-28.444,28.444-28.444s28.444,12.759,28.444,28.444C284.444,404.424,271.685,417.186,256,417.186z"/>
	</g>
</g>
<g>
</g>
<g>
</g>
<g>
</g>
<g>
</g>
<g>
</g>
<g>
</g>
<g>
</g>
<g>
</g>
<g>
</g>
<g>
</g>
<g>
</g>
<g>
</g>
<g>
</g>
<g>
</g>
<g>
</g>
</svg>
