<?xml version="1.0" encoding="iso-8859-1"?>
<!-- Generator: Adobe Illustrator 19.0.0, SVG Export Plug-In . SVG Version: 6.00 Build 0)  -->
<svg version="1.1" id="Layer_1" xmlns="http://www.w3.org/2000/svg" xmlns:xlink="http://www.w3.org/1999/xlink" x="0px" y="0px"
	 viewBox="0 0 512 512" style="enable-background:new 0 0 512 512;" xml:space="preserve">
<g>
	<g>
		<path d="M189.63,208.593c-26.139,0-47.407,21.269-47.407,47.407c0,5.236,4.241,9.482,9.482,9.482c5.241,0,9.481-4.245,9.481-9.482
			c0-15.685,12.759-28.444,28.444-28.444s28.444,12.76,28.444,28.444c0,5.236,4.241,9.482,9.481,9.482s9.482-4.245,9.482-9.482
			C237.037,229.861,215.768,208.593,189.63,208.593z"/>
	</g>
</g>
<g>
	<g>
		<path d="M341.333,208.593c-26.139,0-47.407,21.269-47.407,47.407c0,5.236,4.241,9.482,9.482,9.482s9.482-4.245,9.482-9.482
			c0-15.685,12.759-28.444,28.444-28.444c15.685,0,28.444,12.76,28.444,28.444c0,5.236,4.241,9.482,9.482,9.482
			s9.481-4.245,9.481-9.482C388.741,229.861,367.472,208.593,341.333,208.593z"/>
	</g>
</g>
<g>
	<g>
		<path d="M423.889,325.131c-3.704-3.704-9.704-3.708-13.407-0.005l-63.593,63.57H170.667c-5.241,0-9.482,4.245-9.482,9.481
			s4.241,9.482,9.482,9.482h180.148c2.518,0,4.926-0.978,6.704-2.756l66.37-66.359C427.593,334.84,427.593,328.835,423.889,325.131z
			"/>
	</g>
</g>
<g>
	<g>
		<path d="M511.495,271.846C511.817,266.603,512,261.323,512,256C512,114.843,397.157,0,256,0S0,114.843,0,256
			c0,2.69,0.055,5.366,0.139,8.036c-0.185,1.199-0.139,2.417,0.137,3.602C6.382,403.413,118.743,512,256,512
			c133.324,0,243.15-102.454,254.935-232.76c1-1.964,1.359-4.268,0.778-6.578C511.697,272.597,511.623,272.313,511.495,271.846z
			 M256,18.963c118.604,0,217.139,87.56,234.364,201.435c-29.537-55.661-93.808-132.434-217.354-106.417
			c-148.658,31.307-189.262-3.486-196.829-12.247C119.685,51.095,184.157,18.963,256,18.963z M64.174,116.927
			c8.188,8.45,25.653,20.585,60.896,26.064c-26.148,21.275-77.414,71.308-105.699,99.292
			C22.046,195.627,38.276,152.551,64.174,116.927z M256,493.037c-126.324,0-229.875-99.33-236.674-223.988
			c43.894-43.778,114.623-112.092,127.137-118.345c2.231-1.116,3.805-3.003,4.616-5.169c30.968,1.447,71.889-1.639,125.838-12.998
			c70.732-14.88,128.463,4.569,171.611,57.829c27.694,34.169,40.444,72.16,43.838,83.523
			C483.19,396.269,380.685,493.037,256,493.037z"/>
	</g>
</g>
<g>
</g>
<g>
</g>
<g>
</g>
<g>
</g>
<g>
</g>
<g>
</g>
<g>
</g>
<g>
</g>
<g>
</g>
<g>
</g>
<g>
</g>
<g>
</g>
<g>
</g>
<g>
</g>
<g>
</g>
</svg>
