<?xml version="1.0" encoding="iso-8859-1"?>
<!-- Generator: Adobe Illustrator 19.0.0, SVG Export Plug-In . SVG Version: 6.00 Build 0)  -->
<svg version="1.1" id="Layer_1" xmlns="http://www.w3.org/2000/svg" xmlns:xlink="http://www.w3.org/1999/xlink" x="0px" y="0px"
	 viewBox="0 0 512 512" style="enable-background:new 0 0 512 512;" xml:space="preserve">
<g>
	<g>
		<path d="M256,0C114.843,0,0,114.843,0,256c0,141.157,114.843,256,256,256s256-114.843,256-256C512,114.843,397.157,0,256,0z
			 M256,493.037C125.296,493.037,18.963,386.704,18.963,256C18.963,125.296,125.296,18.963,256,18.963S493.037,125.296,493.037,256
			C493.037,386.704,386.704,493.037,256,493.037z"/>
	</g>
</g>
<g>
	<g>
		<path d="M417.185,246.474H284.444h-37.926h-37.926H94.815c-5.236,0-9.482,4.267-9.482,9.505
			c0,94.106,76.56,170.677,170.667,170.677s170.667-76.576,170.667-170.683C426.667,250.736,422.421,246.474,417.185,246.474z
			 M256,265.436h18.963v47.407H256V265.436z M218.074,265.436h18.963v47.407h-18.963V265.436z M256,407.659
			c-80.463,0-146.495-64-151.412-142.222h94.523v56.934c0,5.236,4.245,9.436,9.482,9.436h37.926h37.926
			c5.236,0,9.481-4.2,9.481-9.436v-56.934h113.486C402.495,343.659,336.463,407.659,256,407.659z"/>
	</g>
</g>
<g>
	<g>
		<path d="M170.667,113.778c-5.236,0-9.482,4.246-9.482,9.482v56.889c0,5.236,4.245,9.482,9.482,9.482s9.481-4.245,9.481-9.482
			v-56.889C180.148,118.023,175.903,113.778,170.667,113.778z"/>
	</g>
</g>
<g>
	<g>
		<path d="M322.37,113.778c-5.236,0-9.481,4.246-9.481,9.482v56.889c0,5.236,4.245,9.482,9.481,9.482s9.482-4.245,9.482-9.482
			v-56.889C331.852,118.023,327.607,113.778,322.37,113.778z"/>
	</g>
</g>
<g>
</g>
<g>
</g>
<g>
</g>
<g>
</g>
<g>
</g>
<g>
</g>
<g>
</g>
<g>
</g>
<g>
</g>
<g>
</g>
<g>
</g>
<g>
</g>
<g>
</g>
<g>
</g>
<g>
</g>
</svg>
