<?xml version="1.0" encoding="iso-8859-1"?>
<!-- Generator: Adobe Illustrator 19.0.0, SVG Export Plug-In . SVG Version: 6.00 Build 0)  -->
<svg version="1.1" id="Layer_1" xmlns="http://www.w3.org/2000/svg" xmlns:xlink="http://www.w3.org/1999/xlink" x="0px" y="0px"
	 viewBox="0 0 512 512" style="enable-background:new 0 0 512 512;" xml:space="preserve">
<g>
	<g>
		<path d="M256,0C114.843,0,0,114.843,0,256c0,141.157,114.843,256,256,256s256-114.843,256-256C512,114.843,397.157,0,256,0z
			 M256,493.037C125.296,493.037,18.963,386.704,18.963,256C18.963,125.296,125.296,18.963,256,18.963S493.037,125.296,493.037,256
			C493.037,386.704,386.704,493.037,256,493.037z"/>
	</g>
</g>
<g>
	<g>
		<path d="M417.185,246.518c-5.236,0-9.481,4.246-9.481,9.482c0,83.648-68.056,151.704-151.704,151.704S104.296,339.648,104.296,256
			c0-5.236-4.245-9.482-9.482-9.482s-9.482,4.246-9.482,9.482c0,94.107,76.56,170.667,170.667,170.667S426.667,350.107,426.667,256
			C426.667,250.764,422.421,246.518,417.185,246.518z"/>
	</g>
</g>
<g>
	<g>
		<path d="M189.63,151.704c-31.37,0-56.889,25.519-56.889,56.889c0,31.37,25.518,56.889,56.889,56.889s56.889-25.518,56.889-56.889
			C246.518,177.222,221,151.704,189.63,151.704z M189.63,246.518c-20.912,0-37.926-17.014-37.926-37.926
			c0-20.912,17.014-37.926,37.926-37.926s37.926,17.014,37.926,37.926C227.556,229.505,210.542,246.518,189.63,246.518z"/>
	</g>
</g>
<g>
	<g>
		<path d="M322.37,151.704c-31.37,0-56.889,25.519-56.889,56.889c0,31.37,25.518,56.889,56.889,56.889
			c31.37,0,56.889-25.518,56.889-56.889C379.259,177.222,353.741,151.704,322.37,151.704z M322.37,246.518
			c-20.912,0-37.926-17.014-37.926-37.926c0-20.912,17.014-37.926,37.926-37.926s37.926,17.014,37.926,37.926
			C360.296,229.505,343.282,246.518,322.37,246.518z"/>
	</g>
</g>
<g>
</g>
<g>
</g>
<g>
</g>
<g>
</g>
<g>
</g>
<g>
</g>
<g>
</g>
<g>
</g>
<g>
</g>
<g>
</g>
<g>
</g>
<g>
</g>
<g>
</g>
<g>
</g>
<g>
</g>
</svg>
